<svg width="20" height="16" viewBox="0 0 20 16" fill="none" xmlns="http://www.w3.org/2000/svg">
<path d="M20 13.8571C20 13.4665 19.6763 13.1429 19.2857 13.1429H0.714286C0.323661 13.1429 0 13.4665 0 13.8571V15.2857C0 15.6763 0.323661 16 0.714286 16H19.2857C19.6763 16 20 15.6763 20 15.2857V13.8571ZM20 9.57143C20 9.1808 19.6763 8.85714 19.2857 8.85714H5C4.60938 8.85714 4.28571 9.1808 4.28571 9.57143V11C4.28571 11.3906 4.60938 11.7143 5 11.7143H19.2857C19.6763 11.7143 20 11.3906 20 11V9.57143ZM20 5.28571C20 4.89509 19.6763 4.57143 19.2857 4.57143H2.14286C1.75223 4.57143 1.42857 4.89509 1.42857 5.28571V6.71429C1.42857 7.10491 1.75223 7.42857 2.14286 7.42857H19.2857C19.6763 7.42857 20 7.10491 20 6.71429V5.28571ZM20 0.999999C20 0.609374 19.6763 0.285713 19.2857 0.285713H6.42857C6.03795 0.285713 5.71429 0.609374 5.71429 0.999999V2.42857C5.71429 2.8192 6.03795 3.14286 6.42857 3.14286H19.2857C19.6763 3.14286 20 2.8192 20 2.42857V0.999999Z" fill="white"/>
</svg>
